<svg width="692" height="389" viewBox="0 0 692 389" fill="none" xmlns="http://www.w3.org/2000/svg">
<path d="M519.328 12.2103L519.649 12.0716C533.822 5.94236 571.42 -7.12754 608.452 4.94164C637.342 14.3575 641.491 37.7 635.316 51.8618C634.764 53.1266 633.979 54.2663 633.168 55.3825C614.642 80.8724 615.479 120.642 640.812 160.3C673.172 210.961 686.342 269.877 690.482 309.28C701.77 385.458 647.961 389.211 600.55 380.955C553.138 372.699 517.767 353.936 406.387 320.162C295.008 286.389 258.5 322.434 229.158 338.55C181 365 174.596 427.487 106.865 353.936C39.9099 281.227 27.7441 243.356 8.93528 194.645C8.50097 193.521 8.14366 192.346 7.88645 191.168C-9.12987 113.239 -1.02062 51.5908 56.1164 49.3562C113.688 47.1046 154.277 105.137 276.193 122.774C398.109 140.411 431.974 86.7489 460.948 53.7258C483.953 27.5058 505.154 18.3388 519.328 12.2103Z" fill="url(#paint0_linear_130_194)"/>
<defs>
<linearGradient id="paint0_linear_130_194" x1="2.76555" y1="-18.3881" x2="332.103" y2="601.915" gradientUnits="userSpaceOnUse">
<stop stop-color="#0C24A2"/>
<stop offset="1" stop-color="#03031B"/>
</linearGradient>
</defs>
</svg>
