<svg width="72" height="72" viewBox="0 0 72 72" fill="none" xmlns="http://www.w3.org/2000/svg">
<g clip-path="url(#clip0_25_8665)">
<path d="M36 70.244C54.9124 70.244 70.2439 54.9125 70.2439 36.0001C70.2439 17.0877 54.9124 1.75623 36 1.75623C17.0876 1.75623 1.7561 17.0877 1.7561 36.0001C1.7561 54.9125 17.0876 70.244 36 70.244Z" fill="url(#paint0_linear_25_8665)"/>
<path d="M36 56.5739C31.8807 56.5744 27.8637 55.2903 24.5086 52.9003C21.1534 50.5104 18.627 47.1336 17.2813 43.2403C17.1673 42.9461 17.1137 42.632 17.1237 42.3167C17.1338 42.0014 17.2073 41.6914 17.3398 41.4051C17.4723 41.1188 17.6612 40.8621 17.8951 40.6505C18.129 40.4388 18.4031 40.2764 18.7012 40.173C18.9992 40.0696 19.3151 40.0274 19.6298 40.0487C19.9446 40.0701 20.2518 40.1547 20.5331 40.2974C20.8144 40.4402 21.0641 40.6381 21.2673 40.8795C21.4704 41.1208 21.6228 41.4007 21.7154 41.7022C22.737 44.6787 24.6628 47.2617 27.2238 49.0904C29.7849 50.919 32.8531 51.902 36 51.902C39.1469 51.902 42.2152 50.919 44.7762 49.0904C47.3372 47.2617 49.2631 44.6787 50.2846 41.7022C50.3772 41.4007 50.5296 41.1208 50.7328 40.8795C50.9359 40.6381 51.1856 40.4402 51.4669 40.2974C51.7483 40.1547 52.0555 40.0701 52.3702 40.0487C52.685 40.0274 53.0008 40.0696 53.2989 40.173C53.5969 40.2764 53.8711 40.4388 54.105 40.6505C54.3389 40.8621 54.5277 41.1188 54.6603 41.4051C54.7928 41.6914 54.8663 42.0014 54.8763 42.3167C54.8864 42.632 54.8328 42.9461 54.7187 43.2403C53.373 47.1336 50.8467 50.5104 47.4915 52.9003C44.1363 55.2903 40.1194 56.5744 36 56.5739Z" fill="white"/>
<path d="M47.3495 32.1531C49.8351 32.1531 51.8501 30.1381 51.8501 27.6525C51.8501 25.1669 49.8351 23.1519 47.3495 23.1519C44.8639 23.1519 42.8489 25.1669 42.8489 27.6525C42.8489 30.1381 44.8639 32.1531 47.3495 32.1531Z" fill="white"/>
<path d="M24.6505 32.1531C27.1362 32.1531 29.1512 30.1381 29.1512 27.6525C29.1512 25.1669 27.1362 23.1519 24.6505 23.1519C22.1649 23.1519 20.1499 25.1669 20.1499 27.6525C20.1499 30.1381 22.1649 32.1531 24.6505 32.1531Z" fill="white"/>
</g>
<defs>
<linearGradient id="paint0_linear_25_8665" x1="70.2439" y1="1.75622" x2="1.7561" y2="70.244" gradientUnits="userSpaceOnUse">
<stop stop-color="#60EC8E"/>
<stop offset="1" stop-color="#5495FC"/>
</linearGradient>
<clipPath id="clip0_25_8665">
<rect width="68.4878" height="68.4878" fill="white" transform="translate(1.7561 1.75623)"/>
</clipPath>
</defs>
</svg>
