<svg width="16" height="16" viewBox="0 0 16 16" fill="none" xmlns="http://www.w3.org/2000/svg">
<path fill-rule="evenodd" clip-rule="evenodd" d="M7.99334 0C5.82182 0 5.54871 0 4.69609 0.0467251C3.85012 0.0867751 3.26395 0.220275 2.76436 0.420526C2.23147 0.620776 1.77852 0.901126 1.33222 1.335C0.905912 1.80225 0.632806 2.2428 0.426311 2.77013C0.226478 3.27743 0.0932556 3.86483 0.0532889 4.70588C0 5.57363 0 5.84063 0 8.01001C0 10.1794 0 10.4597 0.0466278 11.3141C0.0865945 12.1619 0.219817 12.7493 0.41965 13.2499C0.619484 13.7839 0.899251 14.2311 1.33888 14.6783C1.80516 15.0922 2.25812 15.3659 2.78435 15.5728C3.29059 15.7731 3.87677 15.9066 4.71607 15.9466C5.58202 15.9933 5.84846 16 8.01998 16C10.1915 16 10.4713 16 11.3239 15.9466C12.1632 15.9066 12.7494 15.7731 13.2556 15.5728C13.7885 15.3726 14.2281 15.0922 14.6744 14.6516C15.1074 14.1977 15.3805 13.7505 15.587 13.2232C15.7868 12.7159 15.9201 12.1285 15.9534 11.2874C15.9933 10.4197 16 10.1527 16 7.97664C16 5.80058 16 5.52691 15.9534 4.67251C15.9134 3.83813 15.7802 3.25073 15.5803 2.73675C15.3805 2.20275 15.0874 1.76888 14.6478 1.32165C14.1882 0.867751 13.7552 0.600751 13.229 0.400501C12.7227 0.20025 12.1366 0.0667501 11.2973 0.020025C10.438 0 10.1715 0 7.99334 0ZM7.99334 1.4418C10.1249 1.4418 10.378 1.4418 11.224 1.48853C12.0033 1.52858 12.423 1.6554 12.7094 1.76888C13.0824 1.90238 13.3489 2.0826 13.6286 2.36963C13.9084 2.63663 14.0816 2.90363 14.2281 3.28411C14.3347 3.57113 14.4613 3.99166 14.4946 4.77263C14.5412 5.62036 14.5479 5.87401 14.5479 8.01001C14.5479 10.146 14.5479 10.3997 14.5012 11.2474C14.4613 12.0284 14.3347 12.4489 14.2215 12.7359C14.0883 13.1097 13.9084 13.3767 13.622 13.6571C13.3555 13.9374 13.0891 14.111 12.7094 14.2578C12.423 14.3646 12.0033 14.4914 11.224 14.5248C10.378 14.5715 10.1249 14.5782 7.99334 14.5782C5.86178 14.5782 5.60866 14.5782 4.7627 14.5315C3.98335 14.4914 3.5637 14.3646 3.27727 14.2511C2.90425 14.1176 2.6378 13.9374 2.35803 13.6504C2.07827 13.3834 1.90508 13.1164 1.75853 12.7359C1.65196 12.4489 1.5254 12.0284 1.49209 11.2474C1.44546 10.3997 1.4388 10.146 1.4388 8.01001C1.4388 5.87401 1.4388 5.62036 1.48543 4.77263C1.5254 3.99166 1.65196 3.57113 1.7652 3.28411C1.89842 2.9103 2.07827 2.6433 2.3647 2.36295C2.63114 2.0826 2.89759 1.90905 3.27727 1.7622C3.5637 1.6554 3.98335 1.52858 4.7627 1.4952C5.60866 1.44848 5.86178 1.4418 7.99334 1.4418ZM3.89009 8.01001C3.89009 5.74051 5.72856 3.89821 7.99334 3.89821C10.2581 3.89821 12.0966 5.74051 12.0966 8.01001C12.0966 10.2795 10.2581 12.1218 7.99334 12.1218C5.72856 12.1218 3.89009 10.2795 3.89009 8.01001ZM7.99334 10.68C6.52789 10.68 5.32889 9.47851 5.32889 8.01001C5.32889 6.54151 6.52789 5.34001 7.99334 5.34001C9.45878 5.34001 10.6578 6.54151 10.6578 8.01001C10.6578 9.47851 9.45878 10.68 7.99334 10.68ZM12.2631 4.69253C12.7893 4.69253 13.2223 4.27201 13.2223 3.73801L13.2556 3.70463C13.2556 3.1773 12.8226 2.74343 12.2898 2.74343C11.7569 2.74343 11.3306 3.19733 11.3306 3.73133C11.3306 4.26533 11.7302 4.69253 12.2631 4.69253Z" fill="white"/>
</svg>
