<svg width="149" height="142" viewBox="0 0 149 142" fill="none" xmlns="http://www.w3.org/2000/svg">
<g clip-path="url(#clip0_25_8404)">
<path d="M39.8769 156.611C76.3167 166.375 113.772 144.75 123.536 108.31C133.3 71.8706 111.675 34.4149 75.2355 24.6509C38.7957 14.8869 1.34007 36.5119 -8.42396 72.9517C-18.188 109.392 3.43703 146.847 39.8769 156.611Z" fill="url(#paint0_linear_25_8404)"/>
<path d="M74.2573 133.276C73.2016 132.993 72.2542 132.306 71.6603 131.289C62.5315 115.478 40.8075 109.657 25.0041 118.788C22.9649 119.965 20.3504 119.265 19.1731 117.225C17.9958 115.186 18.6963 112.572 20.7355 111.394C30.6156 105.697 42.1176 104.174 53.1363 107.126C64.155 110.079 73.3542 117.149 79.0537 127.021C80.2311 129.06 79.5305 131.674 77.4913 132.852C76.4747 133.446 75.313 133.559 74.2573 133.276Z" fill="white"/>
<path d="M35.0235 75.7538C39.5785 76.9743 44.2604 74.2712 45.4809 69.7162C46.7014 65.1612 43.9983 60.4793 39.4433 59.2588C34.8883 58.0383 30.2064 60.7414 28.9859 65.2964C27.7654 69.8513 30.4685 74.5333 35.0235 75.7538Z" fill="white"/>
<path d="M84.5084 89.0133C89.0633 90.2338 93.7453 87.5307 94.9658 82.9757C96.1863 78.4207 93.4832 73.7387 88.9282 72.5182C84.3732 71.2977 79.6913 74.0009 78.4707 78.5558C77.2502 83.1108 79.9534 87.7928 84.5084 89.0133Z" fill="white"/>
</g>
<defs>
<linearGradient id="paint0_linear_25_8404" x1="141.216" y1="42.3302" x2="-26.1033" y2="138.932" gradientUnits="userSpaceOnUse">
<stop stop-color="#60EC8E"/>
<stop offset="1" stop-color="#5495FC"/>
</linearGradient>
<clipPath id="clip0_25_8404">
<rect width="136.615" height="136.615" fill="white" transform="translate(9.25537 6.97157) rotate(15)"/>
</clipPath>
</defs>
</svg>
