<svg width="100" height="100" viewBox="0 0 100 100" fill="none" xmlns="http://www.w3.org/2000/svg">
<g clip-path="url(#clip0_25_8785)">
<path d="M50.4066 96.748C76.0003 96.748 96.7481 76.0002 96.7481 50.4065C96.7481 24.8128 76.0003 4.06506 50.4066 4.06506C24.813 4.06506 4.06519 24.8128 4.06519 50.4065C4.06519 76.0002 24.813 96.748 50.4066 96.748Z" fill="url(#paint0_linear_25_8785)"/>
<path d="M68.6784 75.6084C67.9435 75.6084 67.2086 75.3335 66.6459 74.7892C57.965 66.3051 42.8423 66.3051 34.1671 74.7892C33.0476 75.8834 31.2275 75.8834 30.108 74.7892C28.9884 73.695 28.9884 71.9163 30.108 70.8221C35.5336 65.5251 42.7389 62.6017 50.4094 62.6017C58.0798 62.6017 65.2852 65.5251 70.7051 70.8221C71.8246 71.9163 71.8246 73.695 70.7051 74.7892C70.1481 75.3391 69.4133 75.6084 68.6784 75.6084Z" fill="white"/>
<path d="M33.3334 44.7155C36.4765 44.7155 39.0244 42.1675 39.0244 39.0244C39.0244 35.8813 36.4765 33.3334 33.3334 33.3334C30.1903 33.3334 27.6423 35.8813 27.6423 39.0244C27.6423 42.1675 30.1903 44.7155 33.3334 44.7155Z" fill="white"/>
<path d="M68.2926 44.7155C71.4357 44.7155 73.9837 42.1675 73.9837 39.0244C73.9837 35.8813 71.4357 33.3334 68.2926 33.3334C65.1495 33.3334 62.6016 35.8813 62.6016 39.0244C62.6016 42.1675 65.1495 44.7155 68.2926 44.7155Z" fill="white"/>
</g>
<defs>
<linearGradient id="paint0_linear_25_8785" x1="4.06519" y1="50.4065" x2="96.7481" y2="50.4065" gradientUnits="userSpaceOnUse">
<stop stop-color="#FF88B0"/>
<stop offset="1" stop-color="#FFA386"/>
</linearGradient>
<clipPath id="clip0_25_8785">
<rect width="92.6829" height="92.6829" fill="white" transform="translate(4.06519 4.06506)"/>
</clipPath>
</defs>
</svg>
