<svg  viewBox="0 0 61 86" fill="none" xmlns="http://www.w3.org/2000/svg">
<path d="M56.145 84.7888C56.2603 84.9785 56.4128 85.1428 56.5934 85.2718C56.774 85.4008 56.979 85.4917 57.1959 85.5391C57.6276 85.6252 58.076 85.5433 58.4496 85.3103C58.6971 85.1461 58.9006 84.9239 59.0424 84.6629C59.1245 84.5409 59.1936 84.4107 59.2487 84.2743C63.063 67.7085 58.7104 50.531 48.418 41.5334L48.1245 41.2758L48.0892 40.8947C46.1105 24.3212 28.8927 14.6127 13.4391 11.0493L9.26196 10.0883L6.9133 9.54303L8.96214 8.26473L16.3225 3.63587C16.5754 3.47742 16.7828 3.25578 16.9242 2.9929C17.0627 2.7292 17.1298 2.43398 17.1191 2.13634C17.1083 1.8387 17.02 1.54901 16.8629 1.29599C16.6239 0.914451 16.2434 0.643308 15.8047 0.541999C15.3661 0.440689 14.9052 0.517609 14.5231 0.755706L1.5844 8.85356C1.3923 8.9689 1.22805 9.12513 1.10346 9.31136L1.00018 9.50586C0.930737 9.63733 0.879246 9.77746 0.846908 9.92259C0.802126 10.1388 0.79517 10.3609 0.82635 10.5795C0.863916 10.8004 0.943713 11.0122 1.06152 11.2028L9.15954 24.1414C9.39851 24.5229 9.77909 24.7941 10.2177 24.8954C10.6564 24.9967 11.1172 24.92 11.4993 24.6819C11.7531 24.5245 11.9608 24.3026 12.101 24.0389C12.1712 23.9078 12.2228 23.7676 12.2544 23.6223C12.3426 23.1905 12.2606 22.7414 12.0256 22.3685L7.38503 14.9452L6.10177 12.9052L8.45512 13.4416L12.6323 14.4027C28.077 17.9614 39.5662 26.1337 43.3625 36.2562L44.1982 38.4776L42.0295 37.5298C32.9516 33.5588 26.7838 37.7115 24.2514 42.4809C23.3522 44.1727 22.8543 46.0488 22.7962 47.9639C22.7381 49.879 23.1215 51.7817 23.9165 53.525C24.7115 55.2682 25.8969 56.8053 27.381 58.0171C28.8651 59.2289 30.6081 60.0829 32.4751 60.5133C35.1091 61.1672 37.8869 60.9092 40.3552 59.7809C42.8234 58.6527 44.8365 56.7211 46.0655 54.3014C47.0031 52.4788 47.6202 50.5086 47.8901 48.4769L48.2387 46.1144L49.6775 48.0106C56.4852 57.0035 58.8673 70.6209 55.8845 83.5522C55.8082 83.9826 55.9015 84.4258 56.145 84.7888ZM43.1537 52.642C42.2908 54.4278 40.8311 55.8562 39.0271 56.6803C37.223 57.5044 35.1878 57.6724 33.273 57.1555C30.9229 56.6133 28.8843 55.1603 27.6049 53.1159C26.3254 51.0714 25.9099 48.6026 26.4496 46.252C26.6382 45.4326 26.9327 44.6413 27.3258 43.898C27.905 42.8006 28.7158 41.8423 29.7021 41.0894C30.6884 40.3365 31.8265 39.8071 33.0377 39.5377C35.4538 38.975 39.3969 39.076 44.4695 42.7431L44.8742 43.0258L44.8845 43.5183C45.1085 46.6549 44.5137 49.7956 43.1584 52.6331L43.1537 52.642Z" fill="#9FB9C2"/>
</svg>
