<svg width="30" height="30" viewBox="0 0 30 30" fill="none" xmlns="http://www.w3.org/2000/svg">
<path d="M20.3398 21.7793C20.0365 22.5377 17.7819 27.8975 14.2939 28H11.4631C10.0982 28 8.99622 26.883 8.99622 25.4994V22.5069C8.99622 22.2917 9.25908 22.1995 9.39051 22.3634C9.78481 22.8451 10.3611 23.1628 10.998 23.2038C11.0486 23.2038 11.1092 23.2038 11.1598 23.2038H18.2066C19.1367 23.2038 19.9758 22.6299 20.3297 21.769L20.3398 21.7793Z" fill="white"/>
<path opacity="0.38" d="M20.3398 21.7793C20.0466 22.5069 17.9538 27.4876 14.6984 27.9693V23.2141H18.2167C19.1468 23.2141 19.986 22.6402 20.3398 21.7793Z" fill="url(#paint0_linear_166_1722)"/>
<path d="M21.2598 5.91486C18.3481 4.05991 13.8086 7.60583 13.1312 8.15924L7.65154 12.1971C7.05504 12.6378 6.61019 13.3244 6.60008 14.0418C6.15523 12.2791 5.36664 7.95428 7.74253 6.21206L12.4539 2.73788C13.7884 1.75404 15.6082 1.75404 16.9428 2.73788L21.2598 5.91486Z" fill="white"/>
<path opacity="0.38" d="M12.1102 8.88704L7.64148 12.1768C7.04498 12.6174 6.60013 13.3041 6.59002 14.0215C6.38782 13.2016 6.10474 11.8181 6.10474 10.4038C6.10474 8.78456 6.4687 7.12433 7.74258 6.19174L9.3602 5.00293L12.1203 8.89729L12.1102 8.88704Z" fill="url(#paint1_linear_166_1722)"/>
<path d="M27.8011 14.0414L26.0621 19.4628C26.9721 16.1116 22.3012 12.5964 21.7957 12.2275C21.7957 12.2275 21.7754 12.2172 21.7653 12.207L16.0632 8.00518C15.2544 7.41078 14.1625 7.41078 13.3638 8.00518L13.1515 8.16916C13.8289 7.61575 18.3683 4.06983 21.28 5.92478L26.4261 9.71666C27.7606 10.7005 28.3268 12.453 27.8112 14.0517L27.8011 14.0414Z" fill="white"/>
<path opacity="0.38" d="M21.9271 6.40645L19.0052 10.1778L16.0531 8.00519C15.2443 7.41078 14.1524 7.41078 13.3537 8.00519L13.1414 8.16916C13.8187 7.61575 18.3582 4.06983 21.2699 5.92478L21.9372 6.41669L21.9271 6.40645Z" fill="url(#paint2_linear_166_1722)"/>
<path d="M26.0622 19.4633L24.1817 25.3151C23.6661 26.9139 22.2001 27.9899 20.5521 27.9899H14.3041C17.7921 27.8875 20.0466 22.5276 20.3499 21.7692C20.3499 21.759 20.3499 21.7487 20.3601 21.7385C20.3601 21.7385 20.3601 21.718 20.3601 21.7077C20.3601 21.6872 20.3702 21.677 20.3702 21.677C20.3803 21.6462 20.3904 21.6155 20.4005 21.5847L22.5742 14.7901C22.8775 13.8473 22.554 12.8122 21.7856 12.2178C22.2911 12.5867 26.962 16.1019 26.0521 19.4531L26.0622 19.4633Z" fill="white"/>
<path opacity="0.38" d="M26.062 19.4633L25.8295 20.191L21.4012 18.5103L22.5841 14.8004C22.8874 13.8575 22.5639 12.8224 21.7955 12.228C22.301 12.597 26.9719 16.1121 26.062 19.4633Z" fill="url(#paint3_linear_166_1722)"/>
<path d="M6.59001 14.0213V21.1746H5.15437C3.40531 21.1746 2 19.7398 2 17.9771V11.6232V11.6027C2 10.9365 2.28308 10.2704 2.90991 9.78871C2.94024 9.76821 2.96046 9.74771 2.99079 9.72722L8.64236 5.5459C5.49811 7.86202 6.74166 13.0272 6.59001 14.0213Z" fill="white"/>
<path d="M16.2957 11.48L12.1809 15.8663L14.3546 16.0815L11.9382 20.2013L17.4078 15.3026L14.759 15.0976L16.2957 11.48Z" fill="white"/>
<defs>
<linearGradient id="paint0_linear_166_1722" x1="19.2884" y1="24.8743" x2="15.9824" y2="24.8743" gradientUnits="userSpaceOnUse">
<stop/>
<stop offset="1" stop-opacity="0"/>
</linearGradient>
<linearGradient id="paint1_linear_166_1722" x1="5.94297" y1="10.947" x2="9.09472" y2="8.7735" gradientUnits="userSpaceOnUse">
<stop/>
<stop offset="1" stop-opacity="0"/>
</linearGradient>
<linearGradient id="paint2_linear_166_1722" x1="15.7902" y1="6.12974" x2="19.0611" y2="8.20053" gradientUnits="userSpaceOnUse">
<stop/>
<stop offset="1" stop-opacity="0"/>
</linearGradient>
<linearGradient id="paint3_linear_166_1722" x1="24.3433" y1="14.8311" x2="23.0599" y2="18.0474" gradientUnits="userSpaceOnUse">
<stop/>
<stop offset="1" stop-opacity="0"/>
</linearGradient>
</defs>
</svg>
